<svg xmlns="http://www.w3.org/2000/svg" viewBox="0 0 547.789 114.848"><defs><style>.a,.b{fill:#9d9d9c;}.a,.d{fill-rule:evenodd;}.c,.d{fill:#005ca9;}</style></defs><title>Mulfinger-Automobile-Logo</title><path class="a" d="M291.088,46.94h14.944L308.8,57.007h5.944L301.474,11.225,280.182,57.007h6.233m7.151-15.52,6.694-15.2,4.153,15.2H293.566Z"/><path class="b" d="M338.083,30.911H332.6l-1.731,15.451c-0.517,4.551-1.843,6.157-4.959,6.157-2.831,0-4.387-1.477-4.387-4.169a21.538,21.538,0,0,1,.233-2.824l1.61-14.615h-5.542l-1.55,14.108c-0.119,1.406-.231,2.689-0.231,3.459,0,5.582,3.746,9.169,9.518,9.169a11.059,11.059,0,0,0,7.964-3.015c1.672-1.856,2.366-3.781,2.886-8.527"/><polyline class="b" points="349.272 36.617 354.357 36.617 354.988 30.907 349.914 30.907 351.24 18.854 345.757 18.854 344.431 30.907 341.311 30.907 340.679 36.617 343.792 36.617 341.545 57.008 347.028 57.008"/><path class="a" d="M367.846,30.077c-7.677,0-13.279,6.025-13.279,14.232,0,7.763,5.483,13.529,12.871,13.529,7.448,0,12.986-6.092,12.986-14.232,0-7.951-5.2-13.529-12.578-13.529M367.787,35.2c4.209,0,7.1,3.271,7.1,8.145,0,5.514-3.061,9.361-7.448,9.361-4.321,0-7.325-3.524-7.325-8.657s3.231-8.849,7.674-8.849"/><path class="a" d="M391.5,30.911h-5.716L382.9,57h5.482L390,42.447c0.579-4.74,2.3-7.113,5.361-7.113a2.919,2.919,0,0,1,3.179,3.077,25.348,25.348,0,0,1-.23,3.143L396.569,57h5.545l1.613-14.558c0.523-5,2.077-7.049,5.315-7.049,2.017,0,3.11,1.152,3.11,3.268,0,0.449-.115,1.859-0.29,3.27L410.194,57h5.539l1.556-14.364a35.619,35.619,0,0,0,.464-5.258c0-4.55-2.481-7.114-6.987-7.114-3,0-5.012,1.154-7.552,4.17-1.215-3.211-2.6-4.234-5.6-4.234-2.649,0-4.387.833-6.4,3.139"/><path class="a" d="M434.419,30.077c-7.678,0-13.273,6.025-13.273,14.232,0,7.763,5.48,13.529,12.868,13.529,7.444,0,12.983-6.092,12.983-14.232,0-7.951-5.2-13.529-12.578-13.529M434.356,35.2c4.216,0,7.1,3.271,7.1,8.145,0,5.514-3.057,9.361-7.444,9.361-4.328,0-7.329-3.524-7.329-8.657s3.228-8.849,7.671-8.849"/><path class="a" d="M460.148,10.26h-5.483L449.469,57h5.483l0.407-3.528c2.594,3.018,4.963,4.17,8.425,4.17,6.869,0,12.23-6.349,12.23-14.492,0-7.5-4.611-12.888-11.078-12.888-2.652,0-4.387.708-7.325,3.013m6.055,2.118c4.041,0,6.812,3.207,6.812,7.823,0,5.191-3.409,9.295-7.674,9.295-3.93,0-6.582-3.143-6.582-7.823,0-5.257,3.232-9.3,7.444-9.3"/><path class="a" d="M485.479,15.073a3.193,3.193,0,0,0-2.886,3.2,3.242,3.242,0,0,0,3.057,3.462,3.13,3.13,0,0,0,2.945-3.271,3.306,3.306,0,0,0-3.116-3.4M486.8,30.911h-5.48L478.439,57h5.477Z"/><polyline class="b" points="500.008 10.261 494.528 10.261 489.335 57.008 494.815 57.008"/><path class="a" d="M524.009,46.171c0-.964.059-1.736,0.059-2.182,0-8.528-4.39-13.913-11.314-13.913-7.158,0-12.526,6.283-12.526,14.489,0,8.02,4.67,13.272,11.723,13.272,4.782,0,7.493-1.474,10.327-5.769l-4.1-2.566a6.6,6.6,0,0,1-5.884,3.208c-3.811,0-6.289-2.5-6.467-6.539m0.349-4.938c0.922-4.1,2.942-6.029,6.289-6.029,3.462,0,5.43,1.991,6,6.029H506.175Z"/><polyline class="c" points="229.247 83.373 233.848 107.272 243.464 86.901 247.581 107.068 258.718 83.373 257.023 83.373 248.134 102.573 244.017 82.228 234.437 102.573 230.771 83.373"/><path class="d" d="M259.948,86.144a1.091,1.091,0,0,0-1.109,1.1,0.874,0.874,0,0,0,.9.9,1.133,1.133,0,0,0,1.109-1.179,0.834,0.834,0,0,0-.9-0.823m-0.072,6.464H258.5l-1.7,13.835h1.353Z"/><path class="d" d="M265.622,92.608h-1.346l-1.7,13.835h1.353l0.931-7.4c0.411-3.429,1.971-5.535,4.117-5.535a3.267,3.267,0,0,1,1.484.414l0.728-1.178a3.743,3.743,0,0,0-1.867-.52c-1.421,0-2.287.56-3.946,2.422"/><path class="d" d="M282.725,81.227h-1.346l-3.113,25.216h1.346l0.382-2.9c1.556,2.317,3.211,3.245,5.709,3.245,4.042,0,7.152-3.416,7.152-7.846,0-3.942-2.66-6.674-6.464-6.674-2.182,0-3.7.8-5.357,2.765m5.288-1.488a5.143,5.143,0,0,1,5.117,5.364c0,3.732-2.56,6.6-5.913,6.6a5.2,5.2,0,0,1-5.223-5.358c0-3.771,2.593-6.608,6.019-6.608"/><path class="d" d="M296.139,99.289H307.69a10.238,10.238,0,0,0-.517-3.462,5.732,5.732,0,0,0-5.528-3.805c-3.946,0-6.856,3.456-6.856,8.195,0,3.982,2.594,6.674,6.467,6.674,2.317,0,3.739-.757,5.4-2.9l-0.931-.658a5.164,5.164,0,0,1-4.36,2.284,5.064,5.064,0,0,1-5.223-5.43m0.207-2.139c0.8-3.087,2.63-4.739,5.3-4.739s4.317,1.652,4.7,4.739h-10Z"/><polyline class="d" points="308.651 92.608 312.699 107.687 319.06 95.958 322.308 107.687 330.407 92.608 328.815 92.608 322.759 104.126 319.475 92.437 313.15 104.126 310.138 92.608"/><path class="d" d="M331.326,99.289h11.555a10.238,10.238,0,0,0-.517-3.462,5.727,5.727,0,0,0-5.529-3.805c-3.952,0-6.855,3.456-6.855,8.195,0,3.982,2.6,6.674,6.467,6.674,2.324,0,3.739-.757,5.4-2.9l-0.938-.658a5.15,5.15,0,0,1-4.357,2.284,5.069,5.069,0,0,1-5.227-5.43m0.211-2.139c0.8-3.087,2.63-4.739,5.3-4.739s4.322,1.652,4.7,4.739h-9.995Z"/><path class="d" d="M359.372,92.608h-1.353l-0.378,2.975c-1.455-2.449-2.939-3.318-5.605-3.318-4.11,0-7.19,3.351-7.19,7.813a6.447,6.447,0,0,0,6.466,6.707c2.008,0,3.324-.619,5.253-2.554l-0.342,3.008c-0.586,4.568-2.212,6.325-5.911,6.325-3.116,0-4.6-1.448-4.775-4.6H344.26c0.066,1.981.342,2.948,1.175,3.916a6.259,6.259,0,0,0,4.841,1.968c4.63,0,6.638-2.212,7.365-8.089m-5.463-13.217c3.08,0,5.157,2.179,5.157,5.47,0,3.593-2.633,6.535-5.884,6.535a5.337,5.337,0,0,1-5.187-5.64,6.132,6.132,0,0,1,5.914-6.365"/><path class="d" d="M362.718,99.289h11.555a10.282,10.282,0,0,0-.513-3.462,5.743,5.743,0,0,0-5.539-3.805c-3.943,0-6.849,3.456-6.849,8.195,0,3.982,2.6,6.674,6.467,6.674,2.32,0,3.739-.757,5.4-2.9l-0.935-.658c-1.389,1.659-2.56,2.284-4.36,2.284a5.067,5.067,0,0,1-5.227-5.43m0.211-2.139c0.793-3.087,2.63-4.739,5.292-4.739s4.324,1.652,4.706,4.739h-10Z"/><path class="d" d="M379.282,92.608h-1.353l-1.691,13.835h1.346l1-7.991c0.211-1.862.524-2.625,1.317-3.455a4.85,4.85,0,0,1,3.353-1.455,2.417,2.417,0,0,1,2.663,2.528c0,0.342-.1,1.382-0.2,2.382l-1,7.991h1.382l0.968-8.023a22.846,22.846,0,0,0,.21-2.389,3.556,3.556,0,0,0-3.876-3.765c-1.731,0-2.87.651-4.358,2.455"/><polyline class="c" points="395.237 106.443 396.896 106.443 405.926 87.112 410.007 107.45 419.584 87.112 423.184 106.443 424.77 106.443 420.14 82.616 410.52 103.192 406.479 82.788"/><path class="d" d="M427.982,99.289h11.554a10.469,10.469,0,0,0-.523-3.462,5.732,5.732,0,0,0-5.535-3.805c-3.94,0-6.842,3.456-6.842,8.195,0,3.982,2.59,6.674,6.46,6.674,2.324,0,3.735-.757,5.4-2.9l-0.931-.658a5.148,5.148,0,0,1-4.36,2.284,5.064,5.064,0,0,1-5.22-5.43m0.2-2.139c0.8-3.087,2.629-4.739,5.292-4.739s4.324,1.652,4.7,4.739h-9.995Z"/><path class="d" d="M444.539,92.608H443.19l-1.695,13.835h1.349l1.007-7.991c0.2-1.862.514-2.625,1.31-3.455a4.872,4.872,0,0,1,3.357-1.455,2.419,2.419,0,0,1,2.662,2.528c0,0.342-.105,1.382-0.207,2.382l-1,7.991h1.382l0.968-8.023a22.03,22.03,0,0,0,.21-2.389,3.55,3.55,0,0,0-3.87-3.765c-1.731,0-2.876.651-4.36,2.455"/><path class="c" d="M463.965,93.891a4.776,4.776,0,0,0-3.735-1.731,3.983,3.983,0,0,0-4.223,3.91c0,1.691.935,2.731,3.357,3.8,1.935,0.829,2.524,1.448,2.524,2.659a2.85,2.85,0,0,1-3.074,3.08,3.324,3.324,0,0,1-3.323-2.349l-1.106.48a4.468,4.468,0,0,0,4.429,3.147,4.159,4.159,0,0,0,4.489-4.22c0-1.829-.825-2.8-3.313-3.942-2.08-.935-2.561-1.415-2.561-2.594a2.7,2.7,0,0,1,2.87-2.7,4,4,0,0,1,2.833,1.244"/><path class="c" d="M477.656,94.135a6.737,6.737,0,0,0-4.946-1.974c-4.256,0-7.369,3.422-7.369,8.056a6.494,6.494,0,0,0,6.776,6.674,6.2,6.2,0,0,0,4.157-1.382l0.207-1.732a5.651,5.651,0,0,1-4.226,1.837,5.134,5.134,0,0,1-5.5-5.43c0-3.943,2.487-6.747,5.982-6.747,1.87,0,3.008.52,4.736,2.179"/><path class="c" d="M482.8,81.234h-1.349l-3.113,25.209h1.345l0.968-7.885c0.247-1.9.52-2.732,1.215-3.456a4.977,4.977,0,0,1,3.527-1.56,2.358,2.358,0,0,1,2.626,2.528,19.858,19.858,0,0,1-.174,2l-1.033,8.372h1.379l1.043-8.577c0.066-.585.135-1.316,0.135-1.625,0-2.561-1.419-3.976-4.009-3.976-1.629,0-2.735.619-4.219,2.35"/><path class="d" d="M493.162,99.289h11.552a10.251,10.251,0,0,0-.514-3.462,5.739,5.739,0,0,0-5.532-3.805c-3.946,0-6.855,3.456-6.855,8.195,0,3.982,2.6,6.674,6.467,6.674,2.32,0,3.742-.757,5.4-2.9l-0.938-.658a5.144,5.144,0,0,1-4.353,2.284,5.066,5.066,0,0,1-5.227-5.43m0.211-2.139c0.793-3.087,2.626-4.739,5.295-4.739s4.318,1.652,4.7,4.739h-9.995Z"/><path class="d" d="M509.723,92.608h-1.346l-1.7,13.835h1.349l1-7.991c0.211-1.862.527-2.625,1.32-3.455a4.858,4.858,0,0,1,3.354-1.455,2.418,2.418,0,0,1,2.662,2.528c0,0.342-.1,1.382-0.2,2.382l-1,7.991h1.385l0.968-8.023a22.613,22.613,0,0,0,.207-2.389,3.555,3.555,0,0,0-3.88-3.765c-1.727,0-2.866.651-4.357,2.455"/><path class="c" d="M521.534,104.508a1.283,1.283,0,0,0-1.241,1.244,0.892,0.892,0,0,0,.935.935,1.34,1.34,0,0,0,1.247-1.211,0.886,0.886,0,0,0-.941-0.968"/><path class="c" d="M67.995,14.237H53.279L49.412,24.752A66.486,66.486,0,0,0,46.006,37H45.432a29.607,29.607,0,0,0,.346-4.3,36.62,36.62,0,0,0-.29-5.129l-1.5-13.337H29.214L18.018,57H32.16l2.825-13.529a98.222,98.222,0,0,0,1.729-11.094h0.462c-0.114,1.415-.114,2.053-0.114,3.208,0,1.988.23,5.967,0.462,7.886L39.026,57h8.769L52.7,44.053a67.354,67.354,0,0,0,3.4-11.671l0.52,0.064A92.094,92.094,0,0,0,55.3,44.374L54.546,57H68.109"/><path class="c" d="M103.54,27.062H90.151L88.535,42.195c-0.4,3.4-.922,4.295-2.6,4.295a2.117,2.117,0,0,1-1.907-2.243c0-.324.117-1.349,0.232-2.629l1.614-14.556H72.491L70.936,41.618a24.744,24.744,0,0,0-.231,3.46c0,8.017,5.711,12.759,15.408,12.759,4.786,0,8.306-1.151,11.136-3.718,2.766-2.432,3.866-5.062,4.442-10.579"/><polyline class="c" points="109.311 3.841 103.41 57.008 116.742 57.008 122.639 3.841"/><path class="c" d="M137.641,38.34l3.24,0.021,1.241-11.3h-3.295l0.354-3.232c0.231-2.117.864-3.011,2.136-3.011a1.863,1.863,0,0,1,1.037.319l1.327-11.992a19.226,19.226,0,0,0-5.77-.9c-6.635,0-10.849,4.106-11.657,11.481l-0.749,7.332-3.435-.013-1.221,11.314,3.371-.021-2.066,18.668h13.391"/><path class="d" d="M152.047,8.312a7.665,7.665,0,0,0-7.613,7.31c0,3.91,3.17,6.862,7.442,6.862a7.428,7.428,0,0,0,7.617-7.12,7.335,7.335,0,0,0-7.446-7.052m5.422,18.75h-13.33L140.853,57h13.33Z"/><path class="c" d="M160.759,27.062L157.471,57H170.8l1.557-13.98c0.406-3.716.981-4.746,2.769-4.746,1.1,0,1.733.774,1.733,2.12a18.438,18.438,0,0,1-.173,2.114L175.073,57h13.389L190.3,40.268c0.175-1.8.29-3.394,0.29-4.549,0-5.516-3.808-9.747-8.828-9.747-3.464,0-5.772,1.8-8.484,6.542l-0.461-.192a25.267,25.267,0,0,0,1.328-5.26"/><path class="d" d="M226.595,27.062h-13.1v1.026c0.115,2.886.115,2.37,0.23,3.912l-0.4.13c-1.445-4.236-3.926-6.158-8.024-6.158-7.381,0-13.213,7.5-13.213,17.052,0,8.215,4.732,14.171,11.308,14.171,3.867,0,6-1.6,7.678-5.641l0.4,0.129c-0.7,3.847-.984,4.936-1.616,6.282a6.913,6.913,0,0,1-6.408,3.655c-2.827,0-5.245-.895-8.655-3.2l-3.574,9.747a32.668,32.668,0,0,0,14.019,3.4,19.6,19.6,0,0,0,12.809-4.292c3.35-2.949,4.847-6.417,5.6-13.34m-14.6-16.094c1.906,0,3.291,1.731,3.291,4.1,0,2.824-1.5,4.617-3.808,4.617-1.9,0-3.235-1.665-3.235-4.039,0-2.5,1.731-4.68,3.752-4.68"/><path class="d" d="M259.474,44.053a24.47,24.47,0,0,0,.231-3.079A15.543,15.543,0,0,0,243.9,25.331c-9.58,0-16.679,7.308-16.679,17.055,0,9.235,6.635,15.451,16.445,15.451,7.5,0,13.1-4.1,15.353-11.222H246.146c-0.635,1.8-1.5,2.57-2.886,2.57-1.675,0-2.943-1.6-2.943-3.788a11.853,11.853,0,0,1,.056-1.344M240.89,37.9c0.408-2.695,1.445-3.977,3.294-3.977,1.962,0,2.883,1.219,2.942,3.977H240.89Z"/><path class="c" d="M285.144,26.227a8.388,8.388,0,0,0-1.679-.321c-2.994,0-4.959,1.8-7.5,6.732l-0.576-.318a24.207,24.207,0,0,0,1.5-5.259h-13.5L260.1,57.007h13.446l0.981-8.786c0.635-5.579,2.6-8.336,5.947-8.336a5.374,5.374,0,0,1,3.054,1.089"/><polyline class="c" points="224.883 63.529 526.543 63.529 542.741 3.86 21.245 3.86 5.043 63.529 187.755 63.529 187.304 67.386 0 67.386 18.294 0 547.789 0 529.498 67.386 224.465 67.386"/></svg>